{
  "accessors": [
    {
      "bufferView": 2,
      "componentType": 5126,
      "count": 2183,
      "max": [
        2.1028170585632324,
        0.7264680862426758,
        -1.6201165914535522
      ],
      "min": [
        0.8585257530212402,
        0.003472357988357544,
        -2.7955422401428223
      ],
      "type": "VEC3"
    },
    {
      "bufferView": 2,
      "byteOffset": 26196,
      "componentType": 5126,
      "count": 2183,
      "max": [
        0.9987015128135681,
        0.982424795627594,
        0.9941879510879517
      ],
      "min": [
        -0.9987014532089233,
        -0.9824247360229492,
        -0.9941877126693726
      ],
      "type": "VEC3"
    },
    {
      "bufferView": 1,
      "componentType": 5126,
      "count": 2183,
      "max": [
        1.0000001192092896,
        0.9900000095367432
      ],
      "min": [
        0.0,
        0.02499985694885254
      ],
      "type": "VEC2"
    },
    {
      "bufferView": 0,
      "componentType": 5125,
      "count": 10752,
      "type": "SCALAR"
    },
    {
      "bufferView": 2,
      "byteOffset": 52392,
      "componentType": 5126,
      "count": 2311,
      "max": [
        -0.9251644611358643,
        -0.5350341200828552,
        2.0928478240966797
      ],
      "min": [
        -2.1694555282592773,
        -1.2580296993255615,
        0.9174208641052246
      ],
      "type": "VEC3"
    },
    {
      "bufferView": 2,
      "byteOffset": 80124,
      "componentType": 5126,
      "count": 2311,
      "max": [
        0.9987013936042786,
        0.9824247360229492,
        0.9941877126693726
      ],
      "min": [
        -0.9987013339996338,
        -0.9824252128601074,
        -0.9941878914833069
      ],
      "type": "VEC3"
    },
    {
      "bufferView": 1,
      "byteOffset": 17464,
      "componentType": 5126,
      "count": 2311,
      "max": [
        1.0000001192092896,
        0.9658839106559753
      ],
      "min": [
        0.0,
        -1.1920928955078125e-07
      ],
      "type": "VEC2"
    },
    {
      "bufferView": 0,
      "byteOffset": 43008,
      "componentType": 5125,
      "count": 10752,
      "type": "SCALAR"
    },
    {
      "bufferView": 2,
      "byteOffset": 107856,
      "componentType": 5126,
      "count": 2311,
      "max": [
        -0.14762675762176514,
        -1.4702454805374146,
        3.7168526649475098
      ],
      "min": [
        -1.3919181823730469,
        -2.1932411193847656,
        2.541426658630371
      ],
      "type": "VEC3"
    },
    {
      "bufferView": 2,
      "byteOffset": 135588,
      "componentType": 5126,
      "count": 2311,
      "max": [
        0.9987015128135681,
        0.982424259185791,
        0.9941879510879517
      ],
      "min": [
        -0.9987016320228577,
        -0.9824255108833313,
        -0.9941868185997009
      ],
      "type": "VEC3"
    },
    {
      "bufferView": 1,
      "byteOffset": 35952,
      "componentType": 5126,
      "count": 2311,
      "max": [
        1.0000001192092896,
        0.9658838510513306
      ],
      "min": [
        0.0,
        -1.1920928955078125e-07
      ],
      "type": "VEC2"
    },
    {
      "bufferView": 0,
      "byteOffset": 86016,
      "componentType": 5125,
      "count": 10752,
      "type": "SCALAR"
    },
    {
      "bufferView": 2,
      "byteOffset": 163320,
      "componentType": 5126,
      "count": 2183,
      "max": [
        1.745381474494934,
        -1.7074170112609863,
        3.5822157859802246
      ],
      "min": [
        0.5010903477668762,
        -2.430412769317627,
        2.4067888259887695
      ],
      "type": "VEC3"
    },
    {
      "bufferView": 2,
      "byteOffset": 189516,
      "componentType": 5126,
      "count": 2183,
      "max": [
        0.9987014532089233,
        0.9824250340461731,
        0.994188129901886
      ],
      "min": [
        -0.9987014532089233,
        -0.9824251532554626,
        -0.9941877722740173
      ],
      "type": "VEC3"
    },
    {
      "bufferView": 1,
      "byteOffset": 54440,
      "componentType": 5126,
      "count": 2183,
      "max": [
        1.0000001192092896,
        0.9900000095367432
      ],
      "min": [
        0.0,
        0.02499985694885254
      ],
      "type": "VEC2"
    },
    {
      "bufferView": 0,
      "byteOffset": 129024,
      "componentType": 5125,
      "count": 10752,
      "type": "SCALAR"
    },
    {
      "bufferView": 2,
      "byteOffset": 215712,
      "componentType": 5126,
      "count": 2311,
      "max": [
        3.040717124938965,
        -1.0859551429748535,
        1.7396373748779297
      ],
      "min": [
        1.796425700187683,
        -1.8089509010314941,
        0.5642111301422119
      ],
      "type": "VEC3"
    },
    {
      "bufferView": 2,
      "byteOffset": 243444,
      "componentType": 5126,
      "count": 2311,
      "max": [
        0.9987013339996338,
        0.982423722743988,
        0.9941880106925964
      ],
      "min": [
        -0.9987015128135681,
        -0.9824246764183044,
        -0.9941877722740173
      ],
      "type": "VEC3"
    },
    {
      "bufferView": 1,
      "byteOffset": 71904,
      "componentType": 5126,
      "count": 2311,
      "max": [
        1.0000001192092896,
        0.9658838510513306
      ],
      "min": [
        0.0,
        -1.1920928955078125e-07
      ],
      "type": "VEC2"
    },
    {
      "bufferView": 0,
      "byteOffset": 172032,
      "componentType": 5125,
      "count": 10752,
      "type": "SCALAR"
    },
    {
      "bufferView": 2,
      "byteOffset": 271176,
      "componentType": 5126,
      "count": 2311,
      "max": [
        2.904712677001953,
        -0.09657663106918335,
        -0.19763875007629395
      ],
      "min": [
        1.6604211330413818,
        -0.8195722103118896,
        -1.373064398765564
      ],
      "type": "VEC3"
    },
    {
      "bufferView": 2,
      "byteOffset": 298908,
      "componentType": 5126,
      "count": 2311,
      "max": [
        0.9987013339996338,
        0.9824248552322388,
        0.9941872954368591
      ],
      "min": [
        -0.9987015724182129,
        -0.9824250936508179,
        -0.994187593460083
      ],
      "type": "VEC3"
    },
    {
      "bufferView": 1,
      "byteOffset": 90392,
      "componentType": 5126,
      "count": 2311,
      "max": [
        1.0000001192092896,
        0.9658838510513306
      ],
      "min": [
        0.0,
        -1.1920928955078125e-07
      ],
      "type": "VEC2"
    },
    {
      "bufferView": 0,
      "byteOffset": 215040,
      "componentType": 5125,
      "count": 10752,
      "type": "SCALAR"
    },
    {
      "bufferView": 2,
      "byteOffset": 326640,
      "componentType": 5126,
      "count": 1649,
      "max": [
        1.7341768741607666,
        1.0355777740478516,
        2.3578786849975586
      ],
      "min": [
        0.6324396133422852,
        -0.5011839270591736,
        1.2067036628723145
      ],
      "type": "VEC3"
    },
    {
      "bufferView": 2,
      "byteOffset": 346428,
      "componentType": 5126,
      "count": 1649,
      "max": [
        0.9973960518836975,
        0.9971337914466858,
        0.9993757605552673
      ],
      "min": [
        -0.9987497925758362,
        -0.9981825947761536,
        -0.9980593919754028
      ],
      "type": "VEC3"
    },
    {
      "bufferView": 1,
      "byteOffset": 108880,
      "componentType": 5126,
      "count": 1649,
      "max": [
        0.8750002384185791,
        1.0
      ],
      "min": [
        0.1250000149011612,
        -2.384185791015625e-07
      ],
      "type": "VEC2"
    },
    {
      "bufferView": 0,
      "byteOffset": 258048,
      "componentType": 5125,
      "count": 9216,
      "type": "SCALAR"
    },
    {
      "bufferView": 2,
      "byteOffset": 366216,
      "componentType": 5126,
      "count": 5054,
      "max": [
        3.74869441986084,
        4.298442840576172,
        1.8174972534179688
      ],
      "min": [
        1.1712305545806885,
        0.6247740983963013,
        -0.40827369689941406
      ],
      "type": "VEC3"
    },
    {
      "bufferView": 2,
      "byteOffset": 426864,
      "componentType": 5126,
      "count": 5054,
      "max": [
        0.9967504739761353,
        0.9992331862449646,
        0.9881199598312378
      ],
      "min": [
        -0.9956279993057251,
        -0.9974085092544556,
        -0.9871622920036316
      ],
      "type": "VEC3"
    },
    {
      "bufferView": 1,
      "byteOffset": 122072,
      "componentType": 5126,
      "count": 5054,
      "max": [
        1.0000001192092896,
        0.9900000095367432
      ],
      "min": [
        0.0,
        -1.1920928955078125e-07
      ],
      "type": "VEC2"
    },
    {
      "bufferView": 0,
      "byteOffset": 294912,
      "componentType": 5125,
      "count": 26112,
      "type": "SCALAR"
    },
    {
      "bufferView": 2,
      "byteOffset": 487512,
      "componentType": 5126,
      "count": 1935,
      "max": [
        2.5319108963012695,
        2.2662642002105713,
        1.3279869556427002
      ],
      "min": [
        1.7822774648666382,
        1.6350210905075073,
        0.5609395503997803
      ],
      "type": "VEC3"
    },
    {
      "bufferView": 2,
      "byteOffset": 510732,
      "componentType": 5126,
      "count": 1935,
      "max": [
        0.9985752701759338,
        0.9782944321632385,
        0.9987308382987976
      ],
      "min": [
        -0.9989618062973022,
        -0.9974085092544556,
        -0.9990583062171936
      ],
      "type": "VEC3"
    },
    {
      "bufferView": 1,
      "byteOffset": 162504,
      "componentType": 5126,
      "count": 1935,
      "max": [
        1.0000001192092896,
        0.3070445656776428
      ],
      "min": [
        0.0,
        0.2860363721847534
      ],
      "type": "VEC2"
    },
    {
      "bufferView": 0,
      "byteOffset": 399360,
      "componentType": 5125,
      "count": 9216,
      "type": "SCALAR"
    },
    {
      "bufferView": 2,
      "byteOffset": 533952,
      "componentType": 5126,
      "count": 8365,
      "max": [
        3.6626992225646973,
        0.9950542449951172,
        4.291688442230225
      ],
      "min": [
        -2.9585485458374023,
        -2.7846217155456543,
        -3.3342959880828857
      ],
      "type": "VEC3"
    },
    {
      "bufferView": 2,
      "byteOffset": 634332,
      "componentType": 5126,
      "count": 8365,
      "max": [
        0.9998843669891357,
        0.9999955296516418,
        0.9716562628746033
      ],
      "min": [
        -0.9999677538871765,
        -0.9998049736022949,
        -0.9960064888000488
      ],
      "type": "VEC3"
    },
    {
      "bufferView": 1,
      "byteOffset": 177984,
      "componentType": 5126,
      "count": 8365,
      "max": [
        1.0000001192092896,
        1.0
      ],
      "min": [
        0.0,
        0.22557950019836426
      ],
      "type": "VEC2"
    },
    {
      "bufferView": 0,
      "byteOffset": 436224,
      "componentType": 5125,
      "count": 45288,
      "type": "SCALAR"
    }
  ],
  "asset": {
    "extras": {
      "author": "Natalie (https://sketchfab.com/natalielaf)",
      "license": "CC-BY-4.0 (http://creativecommons.org/licenses/by/4.0/)",
      "source": "https://sketchfab.com/3d-models/color-palette-a6d64e6b377c4946ab4b1b0bea056c0b",
      "title": "Color Palette"
    },
    "generator": "Sketchfab-15.37.0",
    "version": "2.0"
  },
  "bufferViews": [
    {
      "buffer": 0,
      "byteLength": 617376,
      "name": "floatBufferViews",
      "target": 34963
    },
    {
      "buffer": 0,
      "byteLength": 244904,
      "byteOffset": 617376,
      "byteStride": 8,
      "name": "floatBufferViews",
      "target": 34962
    },
    {
      "buffer": 0,
      "byteLength": 734712,
      "byteOffset": 862280,
      "byteStride": 12,
      "name": "floatBufferViews",
      "target": 34962
    }
  ],
  "buffers": [
    {
      "byteLength": 1596992,
      "uri": "scene.bin"
    }
  ],
  "materials": [
    {
      "doubleSided": true,
      "name": "Material.007",
      "pbrMetallicRoughness": {
        "baseColorFactor": [
          0.428689,
          0.701101,
          0.973445,
          1.0
        ],
        "metallicFactor": 0.0,
        "roughnessFactor": 0.5
      }
    },
    {
      "doubleSided": true,
      "name": "Material.002",
      "pbrMetallicRoughness": {
        "baseColorFactor": [
          0.775822,
          0.165132,
          0.194618,
          1.0
        ],
        "metallicFactor": 0.0,
        "roughnessFactor": 0.5
      }
    },
    {
      "doubleSided": true,
      "name": "Material.003",
      "pbrMetallicRoughness": {
        "baseColorFactor": [
          0.686004,
          0.396722,
          1.0,
          1.0
        ],
        "metallicFactor": 0.0,
        "roughnessFactor": 0.5
      }
    },
    {
      "doubleSided": true,
      "name": "Material.004",
      "pbrMetallicRoughness": {
        "baseColorFactor": [
          0.973445,
          0.806952,
          0.226966,
          1.0
        ],
        "metallicFactor": 0.0,
        "roughnessFactor": 0.5
      }
    },
    {
      "doubleSided": true,
      "name": "Material.005",
      "pbrMetallicRoughness": {
        "baseColorFactor": [
          1.0,
          0.451349,
          0.587978,
          1.0
        ],
        "metallicFactor": 0.0,
        "roughnessFactor": 0.5
      }
    },
    {
      "doubleSided": true,
      "name": "Material.006",
      "pbrMetallicRoughness": {
        "baseColorFactor": [
          0.0481713,
          0.456411,
          0.250158,
          1.0
        ],
        "metallicFactor": 0.0,
        "roughnessFactor": 0.5
      }
    },
    {
      "doubleSided": true,
      "name": "palitra",
      "pbrMetallicRoughness": {
        "baseColorFactor": [
          0.955973,
          0.830769,
          0.679542,
          1.0
        ],
        "metallicFactor": 0.0,
        "roughnessFactor": 0.270642
      }
    },
    {
      "doubleSided": true,
      "name": "Material.008",
      "pbrMetallicRoughness": {
        "baseColorFactor": [
          0.0277163,
          0.0277163,
          0.0277163,
          1.0
        ],
        "metallicFactor": 0.0,
        "roughnessFactor": 0.692661
      }
    },
    {
      "doubleSided": true,
      "name": "Material.009",
      "pbrMetallicRoughness": {
        "baseColorFactor": [
          0.8,
          0.8,
          0.8,
          1.0
        ],
        "metallicFactor": 0.853211,
        "roughnessFactor": 0.169725
      }
    }
  ],
  "meshes": [
    {
      "name": "Object_0",
      "primitives": [
        {
          "attributes": {
            "NORMAL": 1,
            "POSITION": 0,
            "TEXCOORD_0": 2
          },
          "indices": 3,
          "material": 0,
          "mode": 4
        }
      ]
    },
    {
      "name": "Object_1",
      "primitives": [
        {
          "attributes": {
            "NORMAL": 5,
            "POSITION": 4,
            "TEXCOORD_0": 6
          },
          "indices": 7,
          "material": 1,
          "mode": 4
        }
      ]
    },
    {
      "name": "Object_2",
      "primitives": [
        {
          "attributes": {
            "NORMAL": 9,
            "POSITION": 8,
            "TEXCOORD_0": 10
          },
          "indices": 11,
          "material": 2,
          "mode": 4
        }
      ]
    },
    {
      "name": "Object_3",
      "primitives": [
        {
          "attributes": {
            "NORMAL": 13,
            "POSITION": 12,
            "TEXCOORD_0": 14
          },
          "indices": 15,
          "material": 3,
          "mode": 4
        }
      ]
    },
    {
      "name": "Object_4",
      "primitives": [
        {
          "attributes": {
            "NORMAL": 17,
            "POSITION": 16,
            "TEXCOORD_0": 18
          },
          "indices": 19,
          "material": 4,
          "mode": 4
        }
      ]
    },
    {
      "name": "Object_5",
      "primitives": [
        {
          "attributes": {
            "NORMAL": 21,
            "POSITION": 20,
            "TEXCOORD_0": 22
          },
          "indices": 23,
          "material": 5,
          "mode": 4
        }
      ]
    },
    {
      "name": "Object_6",
      "primitives": [
        {
          "attributes": {
            "NORMAL": 25,
            "POSITION": 24,
            "TEXCOORD_0": 26
          },
          "indices": 27,
          "material": 6,
          "mode": 4
        }
      ]
    },
    {
      "name": "Object_7",
      "primitives": [
        {
          "attributes": {
            "NORMAL": 29,
            "POSITION": 28,
            "TEXCOORD_0": 30
          },
          "indices": 31,
          "material": 7,
          "mode": 4
        }
      ]
    },
    {
      "name": "Object_8",
      "primitives": [
        {
          "attributes": {
            "NORMAL": 33,
            "POSITION": 32,
            "TEXCOORD_0": 34
          },
          "indices": 35,
          "material": 8,
          "mode": 4
        }
      ]
    },
    {
      "name": "Object_9",
      "primitives": [
        {
          "attributes": {
            "NORMAL": 37,
            "POSITION": 36,
            "TEXCOORD_0": 38
          },
          "indices": 39,
          "material": 6,
          "mode": 4
        }
      ]
    }
  ],
  "nodes": [
    {
      "children": [
        1
      ],
      "matrix": [
        1.0,
        0.0,
        0.0,
        0.0,
        0.0,
        2.220446049250313e-16,
        -1.0,
        0.0,
        0.0,
        1.0,
        2.220446049250313e-16,
        0.0,
        0.0,
        0.0,
        0.0,
        1.0
      ],
      "name": "Sketchfab_model"
    },
    {
      "children": [
        2
      ],
      "name": "root"
    },
    {
      "children": [
        3,
        10,
        14
      ],
      "matrix": [
        1.0,
        0.0,
        0.0,
        0.0,
        0.0,
        2.220446049250313e-16,
        1.0,
        0.0,
        0.0,
        -1.0,
        2.220446049250313e-16,
        0.0,
        0.0,
        0.0,
        0.0,
        1.0
      ],
      "name": "GLTF_SceneRootNode"
    },
    {
      "children": [
        4,
        5,
        6,
        7,
        8,
        9
      ],
      "name": "colors_0"
    },
    {
      "mesh": 0,
      "name": "Object_4"
    },
    {
      "mesh": 1,
      "name": "Object_5"
    },
    {
      "mesh": 2,
      "name": "Object_6"
    },
    {
      "mesh": 3,
      "name": "Object_7"
    },
    {
      "mesh": 4,
      "name": "Object_8"
    },
    {
      "mesh": 5,
      "name": "Object_9"
    },
    {
      "children": [
        11,
        12,
        13
      ],
      "name": "brush_1"
    },
    {
      "mesh": 6,
      "name": "Object_11"
    },
    {
      "mesh": 7,
      "name": "Object_12"
    },
    {
      "mesh": 8,
      "name": "Object_13"
    },
    {
      "children": [
        15
      ],
      "name": "palette_2"
    },
    {
      "mesh": 9,
      "name": "Object_15"
    }
  ],
  "scene": 0,
  "scenes": [
    {
      "name": "Sketchfab_Scene",
      "nodes": [
        0
      ]
    }
  ]
}
